<svg xmlns="http://www.w3.org/2000/svg" viewBox="0 0 1600 1100" role="img" aria-labelledby="title desc">
  <title id="title">Master Transformation Atlas</title>
  <desc id="desc">A premium atlas-style abstract background of transformation pathways.</desc>
  <defs>
    <linearGradient id="bg" x1="0" x2="1" y1="0" y2="1">
      <stop offset="0%" stop-color="#0b1d38"/>
      <stop offset="100%" stop-color="#071624"/>
    </linearGradient>
  </defs>
  <rect width="1600" height="1100" fill="url(#bg)"/>
  <g stroke="#d4af37" stroke-width="1.4" opacity="0.75" fill="none">
    <path d="M180 250 L420 420 L700 280 L890 540 L1200 360 L1420 520"/>
    <path d="M220 790 L500 620 L800 760 L1070 640 L1340 770"/>
    <path d="M420 420 L420 620"/>
    <path d="M700 280 L700 760"/>
    <path d="M890 540 L890 640"/>
  </g>
  <g fill="#d4af37" opacity="0.8">
    <circle cx="180" cy="250" r="6"/>
    <circle cx="420" cy="420" r="6"/>
    <circle cx="700" cy="280" r="6"/>
    <circle cx="890" cy="540" r="6"/>
    <circle cx="1200" cy="360" r="6"/>
    <circle cx="1420" cy="520" r="6"/>
    <circle cx="220" cy="790" r="6"/>
    <circle cx="500" cy="620" r="6"/>
    <circle cx="800" cy="760" r="6"/>
    <circle cx="1070" cy="640" r="6"/>
    <circle cx="1340" cy="770" r="6"/>
  </g>
</svg>
